<mxfile host="65bd71144e" modified="2020-12-13T16:00:46.745Z" agent="5.0 (Windows NT 10.0; Win64; x64) AppleWebKit/537.36 (KHTML, like Gecko) Code/1.50.1 Chrome/83.0.4103.122 Electron/9.2.1 Safari/537.36" etag="w9GOeuzaLE1QoOPXZPZo" version="13.10.0" type="embed" pages="2">
    <diagram id="otjXkgfll3hahEGakAtn" name="第 2 页">
        <mxGraphModel dx="480" dy="457" grid="1" gridSize="10" guides="1" tooltips="1" connect="1" arrows="1" fold="1" page="1" pageScale="1" pageWidth="827" pageHeight="1169" math="0" shadow="0">
            <root>
                <mxCell id="G3uqA8RsV8FYtyyiwmbU-0"/>
                <mxCell id="G3uqA8RsV8FYtyyiwmbU-1" parent="G3uqA8RsV8FYtyyiwmbU-0"/>
                <mxCell id="G3uqA8RsV8FYtyyiwmbU-4" value="" style="edgeStyle=orthogonalEdgeStyle;rounded=0;orthogonalLoop=1;jettySize=auto;html=1;" parent="G3uqA8RsV8FYtyyiwmbU-1" source="G3uqA8RsV8FYtyyiwmbU-2" target="G3uqA8RsV8FYtyyiwmbU-3" edge="1">
                    <mxGeometry relative="1" as="geometry"/>
                </mxCell>
                <mxCell id="G3uqA8RsV8FYtyyiwmbU-2" value="开始" style="rounded=1;whiteSpace=wrap;html=1;" parent="G3uqA8RsV8FYtyyiwmbU-1" vertex="1">
                    <mxGeometry x="100" y="190" width="120" height="60" as="geometry"/>
                </mxCell>
                <mxCell id="1" style="edgeStyle=orthogonalEdgeStyle;rounded=0;orthogonalLoop=1;jettySize=auto;html=1;entryX=0.5;entryY=0;entryDx=0;entryDy=0;" edge="1" parent="G3uqA8RsV8FYtyyiwmbU-1" source="G3uqA8RsV8FYtyyiwmbU-3" target="G3uqA8RsV8FYtyyiwmbU-7">
                    <mxGeometry relative="1" as="geometry"/>
                </mxCell>
                <mxCell id="G3uqA8RsV8FYtyyiwmbU-3" value="读取表达式" style="shape=parallelogram;perimeter=parallelogramPerimeter;whiteSpace=wrap;html=1;fixedSize=1;rounded=1;size=20;arcSize=0;" parent="G3uqA8RsV8FYtyyiwmbU-1" vertex="1">
                    <mxGeometry x="100" y="330" width="120" height="60" as="geometry"/>
                </mxCell>
                <mxCell id="G3uqA8RsV8FYtyyiwmbU-10" value="" style="edgeStyle=orthogonalEdgeStyle;rounded=0;orthogonalLoop=1;jettySize=auto;html=1;" parent="G3uqA8RsV8FYtyyiwmbU-1" source="G3uqA8RsV8FYtyyiwmbU-7" target="G3uqA8RsV8FYtyyiwmbU-9" edge="1">
                    <mxGeometry relative="1" as="geometry"/>
                </mxCell>
                <mxCell id="G3uqA8RsV8FYtyyiwmbU-7" value="依次读取字符" style="whiteSpace=wrap;html=1;rounded=1;arcSize=0;" parent="G3uqA8RsV8FYtyyiwmbU-1" vertex="1">
                    <mxGeometry x="100" y="480" width="120" height="60" as="geometry"/>
                </mxCell>
                <mxCell id="G3uqA8RsV8FYtyyiwmbU-12" value="" style="edgeStyle=orthogonalEdgeStyle;rounded=0;orthogonalLoop=1;jettySize=auto;html=1;" parent="G3uqA8RsV8FYtyyiwmbU-1" source="G3uqA8RsV8FYtyyiwmbU-9" target="G3uqA8RsV8FYtyyiwmbU-11" edge="1">
                    <mxGeometry relative="1" as="geometry"/>
                </mxCell>
                <mxCell id="G3uqA8RsV8FYtyyiwmbU-16" value="" style="edgeStyle=orthogonalEdgeStyle;rounded=0;orthogonalLoop=1;jettySize=auto;html=1;" parent="G3uqA8RsV8FYtyyiwmbU-1" source="G3uqA8RsV8FYtyyiwmbU-9" target="G3uqA8RsV8FYtyyiwmbU-15" edge="1">
                    <mxGeometry relative="1" as="geometry"/>
                </mxCell>
                <mxCell id="G3uqA8RsV8FYtyyiwmbU-9" value="字符读取完毕？" style="rhombus;whiteSpace=wrap;html=1;rounded=1;arcSize=0;" parent="G3uqA8RsV8FYtyyiwmbU-1" vertex="1">
                    <mxGeometry x="70" y="600" width="180" height="100" as="geometry"/>
                </mxCell>
                <mxCell id="G3uqA8RsV8FYtyyiwmbU-14" value="" style="edgeStyle=orthogonalEdgeStyle;rounded=0;orthogonalLoop=1;jettySize=auto;html=1;" parent="G3uqA8RsV8FYtyyiwmbU-1" source="G3uqA8RsV8FYtyyiwmbU-11" target="G3uqA8RsV8FYtyyiwmbU-13" edge="1">
                    <mxGeometry relative="1" as="geometry"/>
                </mxCell>
                <mxCell id="G3uqA8RsV8FYtyyiwmbU-11" value="输出字符串" style="shape=parallelogram;perimeter=parallelogramPerimeter;whiteSpace=wrap;html=1;fixedSize=1;rounded=1;arcSize=0;" parent="G3uqA8RsV8FYtyyiwmbU-1" vertex="1">
                    <mxGeometry x="100" y="800" width="120" height="60" as="geometry"/>
                </mxCell>
                <mxCell id="G3uqA8RsV8FYtyyiwmbU-13" value="结束" style="whiteSpace=wrap;html=1;rounded=1;arcSize=34;" parent="G3uqA8RsV8FYtyyiwmbU-1" vertex="1">
                    <mxGeometry x="100" y="1090" width="120" height="60" as="geometry"/>
                </mxCell>
                <mxCell id="G3uqA8RsV8FYtyyiwmbU-18" value="" style="edgeStyle=orthogonalEdgeStyle;rounded=0;orthogonalLoop=1;jettySize=auto;html=1;" parent="G3uqA8RsV8FYtyyiwmbU-1" source="G3uqA8RsV8FYtyyiwmbU-15" target="G3uqA8RsV8FYtyyiwmbU-17" edge="1">
                    <mxGeometry relative="1" as="geometry"/>
                </mxCell>
                <mxCell id="G3uqA8RsV8FYtyyiwmbU-15" value="读取下一个字符" style="whiteSpace=wrap;html=1;rounded=1;arcSize=0;" parent="G3uqA8RsV8FYtyyiwmbU-1" vertex="1">
                    <mxGeometry x="360" y="620" width="120" height="60" as="geometry"/>
                </mxCell>
                <mxCell id="G3uqA8RsV8FYtyyiwmbU-20" value="" style="edgeStyle=orthogonalEdgeStyle;rounded=0;orthogonalLoop=1;jettySize=auto;html=1;" parent="G3uqA8RsV8FYtyyiwmbU-1" source="G3uqA8RsV8FYtyyiwmbU-17" target="G3uqA8RsV8FYtyyiwmbU-19" edge="1">
                    <mxGeometry relative="1" as="geometry"/>
                </mxCell>
                <mxCell id="G3uqA8RsV8FYtyyiwmbU-24" value="" style="edgeStyle=orthogonalEdgeStyle;rounded=0;orthogonalLoop=1;jettySize=auto;html=1;" parent="G3uqA8RsV8FYtyyiwmbU-1" source="G3uqA8RsV8FYtyyiwmbU-17" target="G3uqA8RsV8FYtyyiwmbU-23" edge="1">
                    <mxGeometry relative="1" as="geometry"/>
                </mxCell>
                <mxCell id="G3uqA8RsV8FYtyyiwmbU-17" value="是数值？" style="rhombus;whiteSpace=wrap;html=1;rounded=1;arcSize=0;" parent="G3uqA8RsV8FYtyyiwmbU-1" vertex="1">
                    <mxGeometry x="350" y="740" width="140" height="100" as="geometry"/>
                </mxCell>
                <mxCell id="G3uqA8RsV8FYtyyiwmbU-22" value="" style="edgeStyle=orthogonalEdgeStyle;rounded=0;orthogonalLoop=1;jettySize=auto;html=1;entryX=0;entryY=0.5;entryDx=0;entryDy=0;" parent="G3uqA8RsV8FYtyyiwmbU-1" source="G3uqA8RsV8FYtyyiwmbU-19" target="G3uqA8RsV8FYtyyiwmbU-49" edge="1">
                    <mxGeometry relative="1" as="geometry">
                        <mxPoint x="730" y="790" as="targetPoint"/>
                    </mxGeometry>
                </mxCell>
                <mxCell id="G3uqA8RsV8FYtyyiwmbU-26" value="" style="edgeStyle=orthogonalEdgeStyle;rounded=0;orthogonalLoop=1;jettySize=auto;html=1;" parent="G3uqA8RsV8FYtyyiwmbU-1" source="G3uqA8RsV8FYtyyiwmbU-19" target="G3uqA8RsV8FYtyyiwmbU-25" edge="1">
                    <mxGeometry relative="1" as="geometry"/>
                </mxCell>
                <mxCell id="G3uqA8RsV8FYtyyiwmbU-19" value="是运算符？" style="rhombus;whiteSpace=wrap;html=1;rounded=1;arcSize=0;" parent="G3uqA8RsV8FYtyyiwmbU-1" vertex="1">
                    <mxGeometry x="550" y="740" width="140" height="100" as="geometry"/>
                </mxCell>
                <mxCell id="G3uqA8RsV8FYtyyiwmbU-31" style="edgeStyle=orthogonalEdgeStyle;rounded=0;orthogonalLoop=1;jettySize=auto;html=1;entryX=1;entryY=0.5;entryDx=0;entryDy=0;" parent="G3uqA8RsV8FYtyyiwmbU-1" source="G3uqA8RsV8FYtyyiwmbU-23" target="G3uqA8RsV8FYtyyiwmbU-15" edge="1">
                    <mxGeometry relative="1" as="geometry">
                        <Array as="points">
                            <mxPoint x="420" y="1030"/>
                            <mxPoint x="500" y="1030"/>
                            <mxPoint x="500" y="650"/>
                        </Array>
                    </mxGeometry>
                </mxCell>
                <mxCell id="G3uqA8RsV8FYtyyiwmbU-23" value="入栈" style="whiteSpace=wrap;html=1;rounded=1;arcSize=0;" parent="G3uqA8RsV8FYtyyiwmbU-1" vertex="1">
                    <mxGeometry x="360" y="940" width="120" height="60" as="geometry"/>
                </mxCell>
                <mxCell id="G3uqA8RsV8FYtyyiwmbU-32" style="edgeStyle=orthogonalEdgeStyle;rounded=0;orthogonalLoop=1;jettySize=auto;html=1;" parent="G3uqA8RsV8FYtyyiwmbU-1" source="G3uqA8RsV8FYtyyiwmbU-25" edge="1">
                    <mxGeometry relative="1" as="geometry">
                        <mxPoint x="500" y="650" as="targetPoint"/>
                        <Array as="points">
                            <mxPoint x="620" y="1030"/>
                            <mxPoint x="710" y="1030"/>
                            <mxPoint x="710" y="650"/>
                        </Array>
                    </mxGeometry>
                </mxCell>
                <mxCell id="G3uqA8RsV8FYtyyiwmbU-25" value="出栈2个元素&lt;br&gt;并进行运算" style="whiteSpace=wrap;html=1;rounded=1;arcSize=0;" parent="G3uqA8RsV8FYtyyiwmbU-1" vertex="1">
                    <mxGeometry x="560" y="940" width="120" height="60" as="geometry"/>
                </mxCell>
                <mxCell id="G3uqA8RsV8FYtyyiwmbU-39" value="否" style="text;html=1;align=center;verticalAlign=middle;resizable=0;points=[];autosize=1;" parent="G3uqA8RsV8FYtyyiwmbU-1" vertex="1">
                    <mxGeometry x="290" y="650" width="30" height="20" as="geometry"/>
                </mxCell>
                <mxCell id="G3uqA8RsV8FYtyyiwmbU-42" value="否" style="text;html=1;align=center;verticalAlign=middle;resizable=0;points=[];autosize=1;" parent="G3uqA8RsV8FYtyyiwmbU-1" vertex="1">
                    <mxGeometry x="520" y="770" width="30" height="20" as="geometry"/>
                </mxCell>
                <mxCell id="G3uqA8RsV8FYtyyiwmbU-43" value="否" style="text;html=1;align=center;verticalAlign=middle;resizable=0;points=[];autosize=1;" parent="G3uqA8RsV8FYtyyiwmbU-1" vertex="1">
                    <mxGeometry x="730" y="770" width="30" height="20" as="geometry"/>
                </mxCell>
                <mxCell id="G3uqA8RsV8FYtyyiwmbU-52" style="edgeStyle=orthogonalEdgeStyle;rounded=0;orthogonalLoop=1;jettySize=auto;html=1;entryX=0.5;entryY=0;entryDx=0;entryDy=0;" parent="G3uqA8RsV8FYtyyiwmbU-1" source="G3uqA8RsV8FYtyyiwmbU-49" target="G3uqA8RsV8FYtyyiwmbU-13" edge="1">
                    <mxGeometry relative="1" as="geometry">
                        <Array as="points">
                            <mxPoint x="840" y="1070"/>
                            <mxPoint x="160" y="1070"/>
                        </Array>
                    </mxGeometry>
                </mxCell>
                <mxCell id="G3uqA8RsV8FYtyyiwmbU-49" value="报错" style="whiteSpace=wrap;html=1;rounded=1;arcSize=0;" parent="G3uqA8RsV8FYtyyiwmbU-1" vertex="1">
                    <mxGeometry x="780" y="760" width="120" height="60" as="geometry"/>
                </mxCell>
                <mxCell id="G3uqA8RsV8FYtyyiwmbU-54" value="是" style="text;html=1;align=center;verticalAlign=middle;resizable=0;points=[];autosize=1;" parent="G3uqA8RsV8FYtyyiwmbU-1" vertex="1">
                    <mxGeometry x="384" y="890" width="30" height="20" as="geometry"/>
                </mxCell>
                <mxCell id="G3uqA8RsV8FYtyyiwmbU-55" value="是" style="text;html=1;align=center;verticalAlign=middle;resizable=0;points=[];autosize=1;" parent="G3uqA8RsV8FYtyyiwmbU-1" vertex="1">
                    <mxGeometry x="580" y="890" width="30" height="20" as="geometry"/>
                </mxCell>
            </root>
        </mxGraphModel>
    </diagram>
    <diagram id="GSrSMYW0a926CyZzNgvG" name="第 1 页">
        &#xa;
        <mxGraphModel dx="1150" dy="533" grid="1" gridSize="10" guides="1" tooltips="1" connect="1" arrows="1" fold="1" page="1" pageScale="1" pageWidth="827" pageHeight="1169" background="#ffffff" math="0" shadow="1">
            &#xa;
            <root>
                &#xa;
                <mxCell id="0"/>
                &#xa;
                <mxCell id="1" parent="0"/>
                &#xa;
                <mxCell id="4" value="" style="edgeStyle=orthogonalEdgeStyle;rounded=0;orthogonalLoop=1;jettySize=auto;html=1;" parent="1" source="2" target="3" edge="1">
                    &#xa;
                    <mxGeometry relative="1" as="geometry"/>
                    &#xa;
                </mxCell>
                &#xa;
                <mxCell id="2" value="开始" style="rounded=1;whiteSpace=wrap;html=1;" parent="1" vertex="1">
                    &#xa;
                    <mxGeometry x="300" y="90" width="80" height="40" as="geometry"/>
                    &#xa;
                </mxCell>
                &#xa;
                <mxCell id="6" value="" style="edgeStyle=orthogonalEdgeStyle;rounded=0;orthogonalLoop=1;jettySize=auto;html=1;" parent="1" source="3" target="5" edge="1">
                    &#xa;
                    <mxGeometry relative="1" as="geometry"/>
                    &#xa;
                </mxCell>
                &#xa;
                <mxCell id="3" value="p = this-&amp;gt;head;" style="shape=parallelogram;perimeter=parallelogramPerimeter;whiteSpace=wrap;html=1;fixedSize=1;rounded=1;size=0;arcSize=0;" parent="1" vertex="1">
                    &#xa;
                    <mxGeometry x="280" y="180" width="120" height="60" as="geometry"/>
                    &#xa;
                </mxCell>
                &#xa;
                <mxCell id="28" value="" style="edgeStyle=orthogonalEdgeStyle;rounded=0;orthogonalLoop=1;jettySize=auto;html=1;" parent="1" source="5" target="27" edge="1">
                    &#xa;
                    <mxGeometry relative="1" as="geometry"/>
                    &#xa;
                </mxCell>
                &#xa;
                <mxCell id="37" value="" style="edgeStyle=orthogonalEdgeStyle;rounded=0;orthogonalLoop=1;jettySize=auto;html=1;" parent="1" source="5" target="36" edge="1">
                    &#xa;
                    <mxGeometry relative="1" as="geometry"/>
                    &#xa;
                </mxCell>
                &#xa;
                <mxCell id="5" value="p == nullptr?" style="rhombus;whiteSpace=wrap;html=1;rounded=1;arcSize=0;" parent="1" vertex="1">
                    &#xa;
                    <mxGeometry x="260" y="340" width="160" height="80" as="geometry"/>
                    &#xa;
                </mxCell>
                &#xa;
                <mxCell id="14" value="否" style="text;html=1;align=center;verticalAlign=middle;resizable=0;points=[];autosize=1;" parent="1" vertex="1">
                    &#xa;
                    <mxGeometry x="450" y="360" width="30" height="20" as="geometry"/>
                    &#xa;
                </mxCell>
                &#xa;
                <mxCell id="17" value="是" style="text;html=1;align=center;verticalAlign=middle;resizable=0;points=[];autosize=1;" parent="1" vertex="1">
                    &#xa;
                    <mxGeometry x="340" y="430" width="30" height="20" as="geometry"/>
                    &#xa;
                </mxCell>
                &#xa;
                <mxCell id="31" value="" style="edgeStyle=orthogonalEdgeStyle;rounded=0;orthogonalLoop=1;jettySize=auto;html=1;" parent="1" source="27" target="30" edge="1">
                    &#xa;
                    <mxGeometry relative="1" as="geometry"/>
                    &#xa;
                </mxCell>
                &#xa;
                <mxCell id="27" value="输出节点" style="shape=parallelogram;perimeter=parallelogramPerimeter;whiteSpace=wrap;html=1;fixedSize=1;rounded=1;arcSize=0;" parent="1" vertex="1">
                    &#xa;
                    <mxGeometry x="520" y="350" width="120" height="60" as="geometry"/>
                    &#xa;
                </mxCell>
                &#xa;
                <mxCell id="32" style="edgeStyle=orthogonalEdgeStyle;rounded=0;orthogonalLoop=1;jettySize=auto;html=1;" parent="1" source="30" edge="1">
                    &#xa;
                    <mxGeometry relative="1" as="geometry">
                        &#xa;
                        <mxPoint x="340" y="280" as="targetPoint"/>
                        &#xa;
                    </mxGeometry>
                    &#xa;
                </mxCell>
                &#xa;
                <mxCell id="30" value="p = p-&amp;gt;next;" style="whiteSpace=wrap;html=1;rounded=1;arcSize=0;" parent="1" vertex="1">
                    &#xa;
                    <mxGeometry x="520" y="250" width="120" height="60" as="geometry"/>
                    &#xa;
                </mxCell>
                &#xa;
                <mxCell id="36" value="结束" style="rounded=1;whiteSpace=wrap;html=1;" parent="1" vertex="1">
                    &#xa;
                    <mxGeometry x="280" y="470" width="120" height="60" as="geometry"/>
                    &#xa;
                </mxCell>
                &#xa;
            </root>
            &#xa;
        </mxGraphModel>
        &#xa;
    </diagram>
</mxfile>